<?xml version="1.0" encoding="utf-8"?>
<!-- Generator: Adobe Illustrator 17.1.0, SVG Export Plug-In . SVG Version: 6.00 Build 0)  -->
<!DOCTYPE svg PUBLIC "-//W3C//DTD SVG 1.1//EN" "http://www.w3.org/Graphics/SVG/1.1/DTD/svg11.dtd">
<svg version="1.1" id="Layer_2" xmlns="http://www.w3.org/2000/svg" xmlns:xlink="http://www.w3.org/1999/xlink" x="0px" y="0px"
	 viewBox="0 0 490 168" enable-background="new 0 0 490 168" xml:space="preserve">
<g>
	<path fill="#FFFFFF" d="M14.3,127.1c-7.9,0-14.3-6.4-14.3-14.3V47.3C0,39.4,6.4,33,14.3,33L435,33c7.9,0,14.3,6.4,14.3,14.3v65.5
		c0,7.9-6.4,14.3-14.3,14.3L14.3,127.1z"/>
	<path fill="#CC0000" d="M441.7,40.6c-1.8-1.8-4.2-2.8-6.7-2.8h-51l23.6,39.3l2.2,0.3l1.3,1.8v1.7l1.5,0.3l1.4,1.9v1.6l1.5,0.3
		c0,0,1.5,1.6,1.5,1.7v3.7c0,0,3.3,3.1,6.3,4.2c2.1,0.8,2.3,4.1,3.5,5.9c1.6,2.5,3.8,3.6,3.3,5c-1.1,3.9-5,10.3-8.7,10.7
		c0,0-9.2,0-14.6,0l0,6.2H435c5.3,0,9.5-4.3,9.5-9.5V47.3C444.5,44.8,443.5,42.4,441.7,40.6"/>
	<path fill="#000088" d="M370,37.8l-355.7,0c-2.5,0-4.9,1-6.7,2.8c-1.8,1.8-2.8,4.2-2.8,6.7v65.5c0,2.5,1,4.9,2.8,6.7
		c1.8,1.8,4.2,2.8,6.7,2.8l323.6,0c-1.5-2.5-3.2-5.3-3.7-6.2l-7.1,0c0-17.6,6-27.4,13.1-29.3c1-0.2,0.5-5-0.7-6.5
		c0,0-3.4,0.1-4.1-0.1c-0.9-0.3-0.3-1.2-0.3-1.2l3.3-7.2l-0.4-2l-12.3,0c-0.2,0,10.1-7.1,10.1-7.1c0.5-18.7,19.7-20.1,31.2-12.4
		c6.8,4.6,7.4,13.6,6.8,19.8c-0.1,0.4-1.8,0.1-1.8,0.1s-1.2,6.8,1.9,6.8l13.5,0c5.5-0.2,10.8,3.5,10.8,3.5l1.3-4.7L370,37.8z"/>
	<path fill="#FFFFFF" d="M172.9,95c1.8,0,3.4,0.6,4.7,1.9c1.3,1.3,2,2.8,2,4.7c0,1.8-0.7,3.4-2,4.7c-1.3,1.3-2.9,1.9-4.7,1.9
		c-1.8,0-3.4-0.6-4.7-1.9c-1.3-1.3-1.9-2.9-1.9-4.7c0-1.8,0.6-3.4,1.9-4.7C169.5,95.6,171.1,95,172.9,95"/>
	<path fill="#FFFFFF" d="M217.3,79l-9.3,1.9c-0.3-2.1-1-3.6-2.1-4.7c-1.1-1-2.6-1.6-4.3-1.6c-2.4,0-4.2,0.9-5.7,2.7
		c-1.4,1.8-2.1,4.9-2.1,9.1c0,4.8,0.7,8.1,2.1,10.1c1.4,2,3.3,2.9,5.8,2.9c1.8,0,3.3-0.6,4.4-1.8c1.1-1.2,2-3.2,2.4-6l9.3,1.8
		c-1,4.8-2.8,8.4-5.5,10.9c-2.7,2.5-6.4,3.7-11,3.7c-5.2,0-9.4-1.8-12.5-5.5c-3.1-3.7-4.7-8.8-4.7-15.3c0-6.6,1.6-11.8,4.7-15.4
		c3.1-3.7,7.3-5.5,12.6-5.5c4.3,0,7.8,1,10.4,3.1C214.3,71.5,216.1,74.7,217.3,79"/>
	<path fill="#FFFFFF" d="M233.7,78.1c1.7-2.1,3.8-3.2,6.2-3.2c2.5,0,4.5,1.1,6.2,3.2c1.7,2.1,2.5,5.1,2.5,9.1c0,4-0.8,7.1-2.5,9.2
		c-1.7,2.1-3.7,3.2-6.2,3.2c-2.5,0-4.5-1.1-6.2-3.2c-1.7-2.1-2.5-5.2-2.5-9.1C231.1,83.3,232,80.2,233.7,78.1 M223.8,98.4
		c1.5,3.2,3.8,5.6,6.8,7.3c3,1.7,6.1,2.5,9.4,2.5c5.3,0,9.7-2,13.2-6c3.5-4,5.2-9,5.2-15.1c0-6-1.7-11-5.2-14.9
		c-3.5-3.9-7.9-5.9-13.3-5.9c-3.5,0-6.7,0.9-9.5,2.6c-2.8,1.7-5,4.3-6.6,7.5s-2.3,6.7-2.3,10.2C221.5,91.3,222.3,95.2,223.8,98.4"/>
	<path fill="#FFFFFF" d="M262.1,68h8.7v5.5c3.1-4.2,6.8-6.3,11.1-6.3c2.3,0,4.3,0.5,6,1.6c1.7,1.1,3.1,2.7,4.1,4.8
		c1.6-2.1,3.3-3.8,5.1-4.8c1.8-1.1,3.7-1.6,5.8-1.6c2.6,0,4.8,0.6,6.7,1.8c1.8,1.2,3.2,2.9,4.1,5.3c0.7,1.7,1,4.5,1,8.3v25.6h-9.5
		V85.3c0-4-0.3-6.5-1-7.7c-0.9-1.5-2.2-2.3-4-2.3c-1.3,0-2.6,0.5-3.7,1.4c-1.2,0.9-2,2.2-2.5,4c-0.5,1.7-0.8,4.5-0.8,8.3v19.2h-9.5
		V86.2c0-3.9-0.2-6.4-0.5-7.5c-0.3-1.1-0.9-2-1.6-2.5c-0.7-0.6-1.7-0.8-2.9-0.8c-1.5,0-2.8,0.4-3.9,1.3c-1.2,0.9-2,2.2-2.5,3.8
		c-0.5,1.7-0.8,4.4-0.8,8.3v19.5h-9.5L262.1,68L262.1,68z"/>
	<path fill="#FFFFFF" d="M138.4,62.7c2.5,0,5.8,0.5,7,1.5c1.2,1,1.8,2.4,1.8,4.1c0,1.9-0.6,3.3-1.9,4.4c-1.3,1.1-4.7,1.6-7.3,1.6
		h-5.3V62.7L138.4,62.7L138.4,62.7z M142.2,108.2c4.5,0,8-0.6,10.6-1.9c2.5-1.3,4.6-3.2,6.3-5.8c1.6-2.6,2.4-5.4,2.4-8.5
		c0-3.2-0.8-6.1-2.3-8.4c-1.6-2.4-4-4.4-7.4-6c2-1.5,3.5-3.1,4.3-4.8c0.9-1.7,1.3-3.6,1.3-5.8c0-3.2-1-6.1-3-8.4c-2-2.4-4.6-4-8-4.9
		c-2.3-0.7-10.5-1-15.6-1h-8.8v55.5L142.2,108.2L142.2,108.2z M137.9,83.8c4.2,0,8.7,0.7,10.5,2.1c1.8,1.4,2.7,3.3,2.7,5.7
		c0,2.1-0.8,3.7-2.3,4.8c-1.5,1.1-6,1.7-10.5,1.7h-5.6V83.8H137.9z"/>
	<polygon fill="#FFFFFF" points="22.1,108.2 22.1,52.8 38.8,52.8 48.9,90.6 58.7,52.8 75.5,52.8 75.5,108.2 65.2,108.2 65.1,64.6 
		54.2,108.2 43.4,108.2 32.5,64.6 32.4,108.2 	"/>
	<polygon fill="#FFFFFF" points="81.4,52.6 92,52.6 92,98.1 116.3,98.1 116.3,108.2 81.4,108.2 	"/>
	<g>
		<path fill="#FFFFFF" d="M450,133.3c0-0.9-0.5-1-1.2-1h-1.6v3.2h0.7v-1.3h0.6l0.7,1.3h0.7l-0.8-1.3
			C449.7,134.2,450,133.9,450,133.3 M448.8,133.6h-0.9v-0.8h0.7c0.3,0,0.7,0,0.7,0.4C449.4,133.6,449.2,133.6,448.8,133.6"/>
		<path fill="#FFFFFF" d="M448.5,130.8c-1.7,0-3.1,1.4-3.1,3.1c0,1.7,1.4,3.1,3.1,3.1c1.7,0,3.1-1.4,3.1-3.1
			C451.6,132.2,450.2,130.8,448.5,130.8 M448.5,136.3c-1.3,0-2.4-1-2.4-2.4c0-1.4,1.1-2.4,2.4-2.4c1.3,0,2.4,1,2.4,2.4
			C450.9,135.3,449.8,136.3,448.5,136.3"/>
	</g>
</g>
</svg>
