<?xml version="1.0" encoding="UTF-8" standalone="no"?>
<svg xmlns:sketch="http://www.bohemiancoding.com/sketch/ns" xmlns="http://www.w3.org/2000/svg" height="33px" width="235px" version="1.1" xmlns:xlink="http://www.w3.org/1999/xlink" viewBox="0 0 235 33"><!-- Generator: Sketch 3.2.2 (9983) - http://www.bohemiancoding.com/sketch -->
 <title>ticketmaster_logo</title>
 <desc>Created with Sketch.</desc>
 <g id="Page-1" fill-rule="evenodd" sketch:type="MSPage" fill="none">
  <g id="ticketmaster_logo" fill="#414141" sketch:type="MSLayerGroup">
   <g id="Imported-Layers" sketch:type="MSShapeGroup">
    <path id="Fill-1" d="m144.6 28.415h-0.08c-1.89 2.403-3.8 3.77-6.85 3.77-3.84 0-6.56-2.155-6.56-6.094 0-7.045 7.84-7.586 13.04-7.586h1.94c0.16-0.579 0.16-1.201 0.16-1.825 0-2.154-2.3-2.778-4.25-2.778-2.43 0-4.78 0.624-6.97 1.661l0.78-4.438c2.36-0.83 4.75-1.285 7.23-1.285 4.25 0 8.25 1.576 8.25 6.59 0 2.859-2.1 11.237-2.6 15.257h-4.66l0.57-3.272zm-5.4-0.297c4.13 0 5.4-2.855 6.27-6.294h-1.94c-2.68 0-7.14 0.453-7.14 4.061 0 1.492 1.4 2.233 2.81 2.233zm-137.99-17.798h4.003l0.9549-4.392 5.9403-1.95-1.362 6.342h4.955l-0.866 4.062h-4.957l-2.0185 9.325c-0.1244 0.498-0.2519 1.246-0.2519 2.074 0 1.286 0.8713 2.072 2.1071 2.072 0.9903 0 1.9813-0.206 2.6833-0.497l-0.948 4.312c-0.951 0.207-2.0251 0.501-2.9711 0.501-3.759 0-6.4037-1.493-6.4037-5.601 0-1.657 0.3335-3.275 0.705-4.972l1.5693-7.214h-4.005l0.8653-4.062zm16.762 0h5.529l-4.539 21.348h-5.528l4.538-21.348zm2.026-9.207h5.529l-1.157 5.309h-5.532l1.16-5.309zm20.211 14.1c-1.078-0.708-2.517-1.081-4.047-1.081-4.418 0-6.894 4.146-6.894 8.166 0 2.777 0.908 5.555 4.708 5.555 1.36 0 3.052-0.373 4.497-1.079l-0.619 4.396c-1.692 0.828-3.509 0.999-5.325 0.999-5.486 0-9.036-3.691-9.036-9.206 0-7.463 4.907-13.139 12.546-13.139 2.064 0 4.045 0.375 5.531 0.829l-1.361 4.56zm6.065-14.638h5.534l-3.679 17.498h0.087l7.715-7.753h7.183l-10.193 9.738 6.397 11.61h-6.234l-5.49-11.315h-0.081l-2.398 11.315h-5.401l6.56-31.093zm36.782 9.745h4l0.951-4.392 5.947-1.95-1.366 6.342h4.957l-0.871 4.062h-4.954l-2.021 9.325c-0.123 0.498-0.25 1.246-0.25 2.074 0 1.286 0.87 2.072 2.107 2.072 0.994 0 1.982-0.206 2.686-0.497l-0.951 4.312c-0.95 0.207-2.022 0.501-2.972 0.501-3.756 0-6.4-1.493-6.4-5.601 0-1.657 0.332-3.275 0.706-4.972l1.566-7.214h-4.007l0.872-4.062zm-1.85 7.627c0-5.429-3.468-8.123-8.71-8.123-6.975 0-12.096 6.383-12.096 13.013 0 6.345 4.126 9.332 10.237 9.332 2.272 0 4.625-0.542 6.768-1.2l0.7-4.401c-2.062 0.955-4.245 1.535-6.518 1.535-3.539 0-5.607-1.258-5.873-4.616h-0.004c-0.01-0.198-0.03-0.388-0.03-0.594 0-0.039 0.004-0.079 0.004-0.117 0-0.018-0.002-0.042-0.002-0.061h0.002c0.026-1.463 0.344-2.906 0.9-4.235 1.062-2.718 2.568-4.595 5.83-4.595 2.31 0 3.509 1.28 3.509 3.564 0 0.498-0.042 0.953-0.13 1.453h-7.565c-0.489 1.677-0.575 2.8-0.586 3.813h13.024c0.327-1.574 0.54-3.15 0.54-4.768zm18.721-5.262c0.161-0.829 0.331-1.703 0.451-2.365h5.16l-0.49 2.862h0.08c1.49-2.2 3.92-3.358 6.52-3.358 2.52 0 5.12 1.491 5.41 4.061h0.08c1.41-2.777 4.51-4.061 7.48-4.061 3.17 0 5.9 2.61 5.9 5.844 0 1.9-0.5 4.065-0.96 5.802l-2.22 10.198h-5.53l2.23-10.407c0.29-1.281 0.7-3.272 0.7-4.558 0-1.574-1.2-2.571-2.6-2.571-3.84 0-4.79 4.478-5.49 7.38l-2.19 10.156h-5.53l2.23-10.407c0.29-1.281 0.7-3.272 0.7-4.558 0-1.574-1.2-2.571-2.6-2.571-3.75 0-4.79 4.518-5.49 7.38l-2.19 10.156h-5.531l3.88-18.983zm67.791 1.983c-0.59-0.328-2.12-0.783-3.69-0.783-1.65 0-3.71 0.455-3.71 2.154 0 2.695 7.18 3.694 7.18 8.914 0 5.555-4.83 7.216-9.58 7.216-2.23 0-4.45-0.334-6.48-1.286l1.2-4.44c1.57 0.871 3.14 1.66 5.28 1.66 1.86 0 3.8-0.623 3.8-2.362 0-3.443-7.18-3.774-7.18-9.12 0-5.014 4.82-6.797 9.2-6.797 2.03 0 4.09 0.375 5.18 0.654l-1.2 4.19zm3.54-4.348h4l0.95-4.392 5.94-1.95-1.36 6.342h4.95l-0.86 4.062h-4.96l-2.02 9.325c-0.12 0.498-0.25 1.246-0.25 2.074 0 1.286 0.87 2.072 2.11 2.072 0.99 0 1.98-0.206 2.68-0.497l-0.95 4.312c-0.94 0.207-2.02 0.501-2.97 0.501-3.75 0-6.4-1.493-6.4-5.601 0-1.657 0.33-3.275 0.71-4.972l1.56-7.214h-4l0.87-4.062zm37.5 2.862c0.16-0.914 0.33-1.867 0.49-2.862h5.29l-0.75 4.02h0.09c0.99-2.319 3.71-4.516 6.27-4.516 0.7 0 1.45 0.038 2.11 0.203l-1.16 5.432c-0.62-0.208-1.41-0.33-2.11-0.33-3.92 0-5.81 3.521-6.52 6.967l-1.98 9.572h-5.53l3.8-18.486zm-3.84 4.765c0-5.429-3.47-8.123-8.71-8.123-6.98 0-12.09 6.383-12.09 13.013 0 6.345 4.12 9.332 10.23 9.332 2.28 0 4.63-0.542 6.77-1.2l0.7-4.401c-2.06 0.955-4.25 1.535-6.52 1.535-3.54 0-5.61-1.258-5.87-4.616h-0.01c0-0.198-0.02-0.388-0.02-0.594v-0.117-0.061c0.02-1.463 0.35-2.906 0.9-4.235 1.06-2.718 2.57-4.595 5.83-4.595 2.31 0 3.5 1.28 3.5 3.564 0 0.498-0.03 0.953-0.12 1.453h-7.57c-0.49 1.677-0.58 2.8-0.59 3.813h13.03c0.33-1.574 0.54-3.15 0.54-4.768zm24.67-8.097c2.62 0 4.76 2.144 4.76 4.778 0 2.632-2.14 4.772-4.76 4.772s-4.75-2.14-4.75-4.772c0-2.634 2.13-4.778 4.75-4.778zm0.02 8.841c2.18 0 3.83-1.774 3.83-4.063 0-2.286-1.65-4.063-3.83-4.063-2.21 0-3.87 1.777-3.87 4.063 0 2.289 1.66 4.063 3.87 4.063zm-1.83-6.869h2.13c1.28 0 1.91 0.52 1.91 1.578 0 0.896-0.57 1.547-1.44 1.547l1.59 2.474h-0.97l-1.55-2.474h-0.77v2.474h-0.9v-5.599zm0.9 2.409h1.08c0.7 0 1.15-0.147 1.15-0.872 0-0.634-0.57-0.821-1.15-0.821h-1.08v1.693z"/>
   </g>
  </g>
 </g>
</svg>
