<?xml version="1.0" encoding="UTF-8" standalone="no"?>
<svg xmlns:sketch="http://www.bohemiancoding.com/sketch/ns" xmlns="http://www.w3.org/2000/svg" height="24px" width="125px" version="1.1" xmlns:xlink="http://www.w3.org/1999/xlink" viewBox="0 0 125 24"><!-- Generator: Sketch 3.3.1 (12002) - http://www.bohemiancoding.com/sketch -->
 <title>verified-tickets-logo_EN</title>
 <desc>Created with Sketch.</desc>
 <g id="Page-1" fill-rule="evenodd" sketch:type="MSPage" fill="none">
  <g id="verified-tickets-logo_EN" sketch:type="MSLayerGroup">
   <g id="Imported-Layers" sketch:type="MSShapeGroup" transform="translate(0 1)">
    <path id="Fill-1" fill="#009CDE" d="m24.018 9.1446h2.238l0.849 6.2494h0.034l3.317-6.2494h2.32l-4.919 8.5144h-2.417l-1.422-8.5144"/>
    <path id="Fill-2" fill="#009CDE" d="m33.771 14.088c0 1.571 0.833 2.15 2.336 2.15 0.899 0 1.765-0.232 2.582-0.613l-0.278 1.751c-0.85 0.266-1.78 0.482-2.68 0.482-2.418 0-4.051-1.191-4.051-3.722 0-2.644 2.026-5.189 4.786-5.189 2.075 0 3.448 1.074 3.448 3.24 0 0.644-0.081 1.272-0.213 1.901h-5.93zm4.003-1.521c0.032-0.198 0.048-0.38 0.048-0.579 0-0.908-0.473-1.423-1.388-1.423-1.357 0-1.944 0.827-2.369 2.002h3.709z"/>
    <path id="Fill-3" fill="#009CDE" d="m41.548 10.285c0.065-0.3647 0.13-0.7442 0.195-1.1404h2.092l-0.295 1.6034h0.032c0.393-0.9249 1.471-1.801 2.484-1.801 0.278 0 0.572 0.0146 0.833 0.0815l-0.456 2.1655c-0.246-0.082-0.557-0.132-0.834-0.132-1.553 0-2.304 1.406-2.581 2.778l-0.785 3.819h-2.189l1.504-7.374"/>
    <path id="Fill-4" fill="#009CDE" d="m47.518 9.1446h2.189l-1.797 8.5154h-2.19l1.798-8.5154zm0.8-3.6706h2.189l-0.456 2.116h-2.189l0.456-2.116z"/>
    <path id="Fill-5" fill="#009CDE" d="m51.752 10.765h-1.699l0.343-1.6215h1.699c0.441-2.1651 1.16-4.0835 3.709-4.0835 0.506 0 0.996 0.0993 1.356 0.2154l-0.506 1.6539c-0.196-0.1004-0.441-0.1506-0.672-0.1506-1.208 0-1.485 1.4731-1.698 2.3648h1.961l-0.343 1.6215h-1.961l-1.437 6.895h-2.189l1.437-6.895"/>
    <path id="Fill-6" fill="#009CDE" d="m56.986 9.1446h2.189l-1.797 8.5154h-2.19l1.798-8.5154zm0.8-3.6706h2.189l-0.456 2.116h-2.189l0.456-2.116z"/>
    <path id="Fill-7" fill="#009CDE" d="m61.316 14.088c0 1.571 0.832 2.15 2.335 2.15 0.899 0 1.764-0.232 2.581-0.613l-0.277 1.751c-0.849 0.266-1.78 0.482-2.679 0.482-2.419 0-4.053-1.191-4.053-3.722 0-2.644 2.027-5.189 4.787-5.189 2.076 0 3.448 1.074 3.448 3.24 0 0.644-0.082 1.272-0.213 1.901h-5.929zm4.001-1.521c0.033-0.198 0.05-0.38 0.05-0.579 0-0.908-0.473-1.423-1.389-1.423-1.356 0-1.944 0.827-2.37 2.002h3.709z"/>
    <path id="Fill-8" fill="#009CDE" d="m78.009 5.2597l-2.27 10.515c-0.131 0.726-0.262 1.454-0.311 1.884h-2.042l0.212-1.257h-0.032c-0.654 0.925-1.47 1.455-2.745 1.455-1.992 0-2.891-1.686-2.891-3.538 0-2.546 1.372-5.372 4.231-5.372 1.078 0 1.911 0.4119 2.597 1.206l1.062-4.8933h2.189zm-7.792 8.8603c0 0.86 0.261 2.017 1.34 2.017 1.6 0 2.547-1.883 2.547-3.455 0-0.992-0.474-2.017-1.583-2.017-1.57 0-2.304 2.183-2.304 3.455z"/>
    <path id="Fill-9" fill="#414141" d="m0.75517 13.648l0.04338 0.02-0.03615-0.037-0.00723 0.017"/>
    <path id="Fill-10" fill="#414141" d="m0.75517 13.622l0.00723 0.009 0.01343-0.029-0.02066 0.02"/>
    <path id="Fill-11" fill="#414141" d="m6.1674 14.729c0.0103 0.019 0.0155 0.042 0.0247 0.062 0.0093-0.004 0.0197-0.01 0.029-0.017-0.0176-0.014-0.0351-0.031-0.0537-0.045"/>
    <path id="Fill-12" fill="#414141" d="m16.969 7.1143c-0.379 0.3837-0.876 0.5761-1.374 0.5761-0.497 0-0.994-0.1924-1.373-0.5761-0.758-0.7673-0.758-2.0114 0-2.7798l-2.145-2.1704-2.171 2.1996c-0.0537-0.0209-0.1074-0.0407-0.1591-0.0648-0.8409-0.3931-1.2087-1.3999-0.8213-2.2519l-2.3781-1.1103-5.7717 12.665-0.0134 0.029 0.03615 0.036 2.1002 2.127c0.3801-0.384 0.877-0.576 1.3739-0.576 0.3471 0 0.6932 0.094 1.0011 0.283 0.1374-0.143 0.2861-0.274 0.4442-0.394 0.1498-0.115 0.3089-0.221 0.4741-0.316-0.0092-0.02-0.0154-0.043-0.0247-0.062-0.5393-0.427-1.1984-0.662-1.8947-0.662-0.2231 0-0.4411 0.024-0.6539 0.071-0.1952 0.043-0.3853 0.103-0.5671 0.182l-0.3596-0.363-0.3285-0.335 7.9964-8.0905 0.585-0.5928 1.132-1.1468 0.588 0.5938 0.1 0.1035c-0.163 0.3847-0.248 0.8039-0.248 1.2357 0 0.1506 0.014 0.3001 0.035 0.4475 0.04 0.2896 0.119 0.5666 0.236 0.829 0.152 0.3408 0.362 0.6545 0.629 0.9273 0.583 0.5886 1.357 0.9117 2.178 0.9117 0.427 0 0.841-0.0868 1.221-0.253l0.689 0.6973-6.2 6.2753c0.13 0.139 0.253 0.286 0.364 0.444 0.115 0.158 0.218 0.325 0.309 0.5l7.136-7.2193-2.145-2.1704zm-9.2634-4.4473c-0.032 1.0109 0.4865 1.9936 1.3956 2.5101l-6.1436 6.2159 4.1116-9.023 0.6364 0.297z"/>
    <path id="Fill-13" fill="#009CDE" d="m11.473 17.016c-0.083-0.182-0.177-0.358-0.288-0.523-0.106-0.16-0.229-0.309-0.36-0.448-0.644-0.69-1.5533-1.121-2.5647-1.121-0.5547 0-1.0795 0.134-1.5465 0.365-0.1322 0.065-0.2603 0.138-0.3832 0.218-0.0372 0.024-0.0734 0.051-0.1095 0.077-0.154 0.11-0.3006 0.233-0.436 0.366-0.6518 0.651-1.0568 1.552-1.0568 2.549 0 1.975 1.5816 3.576 3.532 3.576 1.9517 0 3.5327-1.601 3.5327-3.576 0-0.529-0.116-1.031-0.32-1.483"/>
    <path id="Fill-14" fill="#fff" d="m7.8647 20.672l-1.8626-1.889 0.8058-0.82 1.0547 1.073 2.2334-2.262 0.809 0.818-3.0403 3.08"/>
    <path id="Fill-15" fill="#414141" d="m81.671 9.1435h1.589l0.377-1.7574 2.36-0.7788-0.541 2.5362h1.965l-0.344 1.6255h-1.964l-0.804 3.729c-0.049 0.2-0.098 0.498-0.098 0.829 0 0.515 0.344 0.829 0.835 0.829 0.394 0 0.787-0.082 1.065-0.197l-0.376 1.722c-0.378 0.083-0.803 0.2-1.18 0.2-1.491 0-2.54-0.598-2.54-2.238 0-0.663 0.132-1.31 0.279-1.989l0.622-2.885h-1.589l0.344-1.6255"/>
    <path id="Fill-16" fill="#414141" d="m87.995 9.1435h2.195l-1.802 8.5375h-2.195l1.802-8.5375zm0.803-3.68h2.195l-0.459 2.1223h-2.195l0.459-2.1223z"/>
    <path id="Fill-17" fill="#414141" d="m96.726 11.101c-0.425-0.283-0.999-0.432-1.605-0.432-1.753 0-2.736 1.658-2.736 3.267 0 1.111 0.361 2.22 1.868 2.22 0.54 0 1.213-0.148 1.785-0.43l-0.246 1.758c-0.671 0.332-1.392 0.397-2.113 0.397-2.179 0-3.588-1.476-3.588-3.681 0-2.983 1.95-5.2551 4.981-5.2551 0.818 0 1.606 0.1495 2.195 0.3314l-0.541 1.8247"/>
    <path id="Fill-18" fill="#414141" d="m99.029 5.2482h2.191l-1.453 6.9958h0.032l3.061-3.1005h2.85l-4.04 3.8965 2.54 4.641h-2.48l-2.176-4.526h-0.033l-0.95 4.526h-2.146l2.604-12.433"/>
    <path id="Fill-19" fill="#414141" d="m106.08 14.1c0 1.577 0.84 2.158 2.35 2.158 0.9 0 1.77-0.233 2.59-0.615l-0.28 1.759c-0.86 0.263-1.79 0.479-2.69 0.479-2.43 0-4.06-1.193-4.06-3.729 0-2.654 2.03-5.2071 4.8-5.2071 2.08 0 3.45 1.0781 3.45 3.2501 0 0.646-0.08 1.276-0.21 1.905h-5.95zm4.02-1.523c0.03-0.2 0.05-0.382 0.05-0.58 0-0.913-0.48-1.427-1.4-1.427-1.36 0-1.95 0.829-2.37 2.007h3.72z"/>
    <path id="Fill-20" fill="#414141" d="m112.8 9.1435h1.59l0.38-1.7574 2.35-0.7788-0.54 2.5362h1.97l-0.34 1.6255h-1.97l-0.8 3.729c-0.05 0.2-0.1 0.498-0.1 0.829 0 0.515 0.34 0.829 0.83 0.829 0.4 0 0.79-0.082 1.07-0.197l-0.38 1.722c-0.37 0.083-0.8 0.2-1.18 0.2-1.49 0-2.54-0.598-2.54-2.238 0-0.663 0.13-1.31 0.28-1.989l0.62-2.885h-1.58l0.34-1.6255"/>
    <path id="Fill-21" fill="#414141" d="m124.25 10.968c-0.58-0.217-1.18-0.398-1.8-0.398-0.66 0-1.48 0.181-1.48 0.862 0 1.077 2.85 1.475 2.85 3.564 0 2.223-1.92 2.885-3.8 2.885-0.88 0-1.77-0.132-2.57-0.515l0.47-1.773c0.63 0.349 1.25 0.665 2.1 0.665 0.74 0 1.51-0.25 1.51-0.946 0-1.376-2.85-1.508-2.85-3.649 0-2.0061 1.91-2.7181 3.65-2.7181 0.8 0 1.62 0.1495 2.39 0.3481l-0.47 1.675"/>
   </g>
  </g>
 </g>
</svg>
