<?xml version="1.0" encoding="utf-8"?>
<!-- Generator: Adobe Illustrator 16.0.4, SVG Export Plug-In . SVG Version: 6.00 Build 0)  -->
<!DOCTYPE svg PUBLIC "-//W3C//DTD SVG 1.1//EN" "http://www.w3.org/Graphics/SVG/1.1/DTD/svg11.dtd">
<svg version="1.1" id="Layer_1" xmlns="http://www.w3.org/2000/svg" xmlns:xlink="http://www.w3.org/1999/xlink" x="0px" y="0px"
	 width="276.173px" height="17.241px" viewBox="0 8.379 276.173 17.241" enable-background="new 0 8.379 276.173 17.241"
	 xml:space="preserve">
<path d="M135.771,8.953c-0.363,0-0.613,0.25-0.729,0.596l-3.717,10.696l-3.512-10.696c-0.112-0.346-0.362-0.596-0.746-0.596h-0.096
	c-0.404,0-0.636,0.25-0.746,0.596l-3.511,10.696l-3.698-10.659c-0.117-0.344-0.404-0.633-0.785-0.633
	c-0.422,0-0.789,0.366-0.789,0.768c0,0.115,0.039,0.229,0.078,0.345l4.295,11.926c0.133,0.4,0.4,0.648,0.783,0.648h0.116
	c0.384,0,0.65-0.268,0.786-0.648l3.471-10.314l3.488,10.314c0.137,0.382,0.402,0.648,0.785,0.648h0.113
	c0.383,0,0.654-0.268,0.787-0.648l4.295-11.926c0.039-0.115,0.097-0.248,0.097-0.363C136.539,9.319,136.175,8.953,135.771,8.953z"/>
<path d="M142.616,12.347c-2.992,0-5.178,2.377-5.178,5.176v0.037c0,2.799,2.168,5.138,5.139,5.138c2.988,0,5.193-2.378,5.193-5.175
	v-0.039C147.771,14.686,145.587,12.347,142.616,12.347z M146.258,17.562c0,2.09-1.495,3.814-3.642,3.814
	c-2.09,0-3.664-1.725-3.664-3.854v-0.039c0-2.088,1.479-3.833,3.625-3.833c2.088,0,3.681,1.745,3.681,3.873V17.562z"/>
<path d="M155.306,12.347c-1.707,0-2.742,0.862-3.392,1.937v-1.075c0-0.42-0.329-0.747-0.75-0.747c-0.399,0-0.729,0.345-0.729,0.747
	v8.609c0,0.418,0.328,0.746,0.75,0.746s0.729-0.328,0.729-0.746v-5.024c0-1.859,1.265-3.105,2.971-3.105
	c1.746,0,2.742,1.151,2.742,2.989v5.141c0,0.42,0.325,0.746,0.746,0.746c0.403,0,0.729-0.326,0.729-0.746v-5.504
	C159.103,13.958,157.702,12.347,155.306,12.347z"/>
<path d="M170.931,8.379c-0.422,0-0.729,0.326-0.729,0.747v5.33c-0.768-1.112-1.957-2.109-3.795-2.109
	c-2.379,0-4.738,1.917-4.738,5.158v0.037c0,3.26,2.359,5.14,4.738,5.14c1.82,0,2.988-1.018,3.795-2.203v1.34
	c0,0.42,0.324,0.746,0.746,0.746c0.404,0,0.729-0.326,0.729-0.746V9.126C171.677,8.705,171.353,8.379,170.931,8.379z M170.26,17.523
	c0,2.278-1.745,3.834-3.585,3.834c-1.859,0-3.488-1.496-3.488-3.834v-0.039c0-2.396,1.57-3.814,3.488-3.814
	c1.84,0,3.585,1.533,3.585,3.814V17.523z"/>
<path d="M179.114,12.347c-2.738,0-4.752,2.3-4.752,5.158v0.037c0,3.067,2.221,5.156,4.945,5.156c1.685,0,2.799-0.593,3.737-1.494
	c0.153-0.134,0.229-0.308,0.229-0.479c0-0.344-0.286-0.633-0.65-0.633c-0.175,0-0.307,0.078-0.425,0.172
	c-0.729,0.674-1.628,1.15-2.853,1.15c-1.765,0-3.279-1.208-3.488-3.354h7.17c0.359,0,0.688-0.287,0.688-0.688
	C183.717,14.743,182.05,12.347,179.114,12.347z M175.858,16.968c0.188-1.938,1.492-3.375,3.217-3.375
	c1.979,0,3.014,1.572,3.162,3.375H175.858z"/>
<path d="M191.212,12.424c-1.246,0-2.686,0.997-3.41,2.646v-1.861c0-0.42-0.328-0.747-0.75-0.747c-0.402,0-0.729,0.345-0.729,0.747
	v8.609c0,0.418,0.324,0.746,0.746,0.746s0.731-0.346,0.731-0.746v-3.377c0-2.854,1.571-4.292,3.484-4.522
	c0.386-0.057,0.653-0.345,0.653-0.748C191.94,12.749,191.653,12.424,191.212,12.424z"/>
<path d="M197.824,9.683c0.288,0,0.557,0.057,0.807,0.096c0.384,0.039,0.707-0.25,0.707-0.633c0-0.326-0.246-0.576-0.534-0.633
	c-0.326-0.077-0.689-0.115-1.172-0.115c-0.9,0-1.629,0.269-2.125,0.767c-0.557,0.556-0.863,1.418-0.863,2.549v0.863h-0.808
	c-0.343,0-0.632,0.288-0.632,0.632c0,0.364,0.268,0.652,0.632,0.652h0.808v7.958c0,0.4,0.324,0.746,0.75,0.746
	c0.418,0,0.725-0.346,0.725-0.746v-7.958h2.55c0.367,0,0.653-0.288,0.653-0.633c0-0.364-0.286-0.633-0.653-0.633h-2.567V11.79
	C196.101,10.373,196.675,9.683,197.824,9.683z"/>
<path d="M208.886,12.463c-0.421,0-0.729,0.326-0.729,0.747v5.022c0,1.859-1.285,3.105-2.971,3.105c-1.746,0-2.742-1.148-2.742-2.99
	V13.21c0-0.42-0.344-0.747-0.746-0.747c-0.426,0-0.729,0.326-0.729,0.747v5.503c0,2.357,1.4,3.969,3.796,3.969
	c1.706,0,2.721-0.863,3.393-1.938v1.075c0,0.418,0.324,0.746,0.729,0.746c0.422,0,0.729-0.346,0.729-0.746v-8.609
	C209.614,12.789,209.289,12.463,208.886,12.463z"/>
<path d="M213.792,8.379c-0.4,0-0.729,0.344-0.729,0.747v12.692c0,0.418,0.328,0.746,0.75,0.746c0.42,0,0.729-0.328,0.729-0.746
	V9.126C214.542,8.724,214.217,8.379,213.792,8.379z"/>
<path d="M234.19,8.953c-0.422,0-0.769,0.347-0.769,0.768v7.13c0,2.934-1.571,4.43-4.045,4.43c-2.55,0-4.104-1.629-4.104-4.523V9.721
	c0-0.421-0.342-0.768-0.764-0.768c-0.402,0-0.75,0.347-0.75,0.768v7.13c0,3.797,2.264,5.83,5.581,5.83
	c3.353,0,5.595-2.033,5.595-5.941V9.721C234.937,9.3,234.594,8.953,234.19,8.953z"/>
<path d="M243.142,12.347c-1.703,0-2.738,0.862-3.392,1.937v-1.075c0-0.42-0.328-0.747-0.745-0.747c-0.404,0-0.732,0.345-0.732,0.747
	v8.609c0,0.418,0.328,0.746,0.75,0.746c0.42,0,0.729-0.328,0.729-0.746v-5.024c0-1.859,1.264-3.105,2.971-3.105
	c1.746,0,2.738,1.151,2.738,2.989v5.141c0,0.42,0.329,0.746,0.75,0.746c0.403,0,0.729-0.326,0.729-0.746v-5.504
	C246.938,13.958,245.538,12.347,243.142,12.347z"/>
<path d="M250.942,12.463c-0.398,0-0.728,0.345-0.728,0.747v8.608c0,0.42,0.328,0.746,0.749,0.746c0.422,0,0.727-0.326,0.727-0.746
	V13.21C251.69,12.789,251.365,12.463,250.942,12.463z"/>
<path d="M250.942,8.667c-0.478,0-0.859,0.306-0.859,0.787v0.249c0,0.459,0.383,0.787,0.859,0.787c0.5,0,0.883-0.328,0.883-0.787
	v-0.25C251.825,8.973,251.442,8.667,250.942,8.667z"/>
<path d="M259.685,12.347c-2.987,0-5.174,2.377-5.174,5.176v0.037c0,2.799,2.167,5.138,5.139,5.138c2.988,0,5.195-2.378,5.195-5.175
	v-0.039C264.845,14.686,262.659,12.347,259.685,12.347z M263.326,17.562c0,2.09-1.492,3.814-3.643,3.814
	c-2.089,0-3.659-1.725-3.659-3.854v-0.039c0-2.088,1.475-3.833,3.624-3.833c2.089,0,3.678,1.745,3.678,3.873V17.562z"/>
<path d="M272.374,12.347c-1.703,0-2.738,0.862-3.392,1.937v-1.075c0-0.42-0.325-0.747-0.746-0.747c-0.403,0-0.729,0.345-0.729,0.747
	v8.609c0,0.418,0.325,0.746,0.746,0.746s0.729-0.328,0.729-0.746v-5.024c0-1.859,1.268-3.105,2.971-3.105
	c1.746,0,2.742,1.151,2.742,2.989v5.141c0,0.42,0.328,0.746,0.746,0.746c0.402,0,0.731-0.326,0.731-0.746v-5.504
	C276.174,13.958,274.773,12.347,272.374,12.347z"/>
<path display="none" fill="#919095" d="M161.555,0h-13.839c-0.942,0-1.811,0.511-2.271,1.333l-4.647,8.33l-4.648-8.33
	C135.689,0.511,134.821,0,133.878,0h-13.84c-0.922,0-1.775,0.488-2.241,1.285c-0.469,0.794-0.479,1.78-0.03,2.585l13.839,24.796
	c0.459,0.823,1.329,1.334,2.272,1.334c0.943,0,1.812-0.511,2.271-1.334l4.648-8.33l4.647,8.33c0.461,0.823,1.329,1.334,2.271,1.334
	c0.943,0,1.813-0.511,2.271-1.334l13.84-24.796c0.45-0.805,0.438-1.791-0.028-2.585C163.332,0.488,162.479,0,161.555,0z
	 M134.893,20.243c-0.558,0.998-1.471,0.998-2.03,0L125.486,7.02c-0.561-1-0.079-1.818,1.064-1.818h3.485
	c1.143,0,2.534,0.818,3.094,1.818l4.689,7.98L134.893,20.243z M156.111,7.021l-7.372,13.208l-0.009,0.016
	c-0.558,0.998-1.471,0.998-2.028,0L143.776,15l4.689-7.979c0.558-1,1.95-1.818,3.095-1.818h3.485
	C156.19,5.202,156.669,6.02,156.111,7.021z"/>
<path d="M5.029,9.053H0.748C0.345,9.053,0,9.398,0,9.821v12c0,0.422,0.345,0.769,0.748,0.769c0.423,0,0.769-0.347,0.769-0.769v-4.07
	H4.78c2.86,0,5.279-1.496,5.279-4.396v-0.038C10.06,10.665,8.063,9.053,5.029,9.053z M8.524,13.411c0,1.766-1.46,2.956-3.687,2.956
	h-3.32v-5.914h3.397c2.171,0,3.61,0.999,3.61,2.919V13.411z"/>
<path d="M17.048,12.355c-2.994,0-5.184,2.381-5.184,5.184v0.039c0,2.803,2.17,5.145,5.146,5.145c2.995,0,5.203-2.381,5.203-5.184
	v-0.04C22.213,14.696,20.024,12.355,17.048,12.355z M20.696,17.578c0,2.092-1.498,3.82-3.648,3.82c-2.092,0-3.666-1.729-3.666-3.859
	v-0.04c0-2.092,1.478-3.839,3.628-3.839c2.094,0,3.687,1.747,3.687,3.879L20.696,17.578L20.696,17.578z"/>
<path d="M37.592,12.47c-0.403,0-0.614,0.27-0.711,0.576l-2.534,7.488l-2.496-7.469c-0.115-0.345-0.365-0.595-0.768-0.595h-0.076
	c-0.385,0-0.615,0.25-0.73,0.595l-2.515,7.469l-2.496-7.45C25.15,12.72,24.9,12.47,24.517,12.47c-0.44,0-0.749,0.345-0.749,0.71
	c0,0.135,0.059,0.289,0.097,0.403l3.015,8.39c0.153,0.44,0.461,0.672,0.825,0.672h0.038c0.385,0,0.672-0.23,0.807-0.672l2.496-7.238
	l2.477,7.238c0.135,0.44,0.423,0.672,0.806,0.672h0.058c0.346,0,0.653-0.23,0.807-0.672l3.033-8.409
	c0.038-0.114,0.097-0.268,0.097-0.402C38.321,12.796,38.014,12.47,37.592,12.47z"/>
<path d="M44.657,12.355c-2.746,0-4.762,2.304-4.762,5.167v0.037c0,3.072,2.227,5.164,4.953,5.164c1.689,0,2.803-0.596,3.744-1.498
	c0.153-0.133,0.23-0.309,0.23-0.479c0-0.347-0.288-0.634-0.654-0.634c-0.172,0-0.306,0.076-0.421,0.173
	c-0.73,0.672-1.633,1.151-2.861,1.151c-1.767,0-3.283-1.209-3.494-3.359h7.181c0.364,0,0.691-0.287,0.691-0.691
	C49.265,14.755,47.595,12.355,44.657,12.355z M41.393,16.98c0.192-1.938,1.498-3.377,3.226-3.377c1.978,0,3.015,1.574,3.168,3.377
	H41.393z"/>
<path d="M56.771,12.433c-1.247,0-2.688,0.998-3.417,2.648v-1.862c0-0.423-0.326-0.749-0.749-0.749c-0.403,0-0.729,0.345-0.729,0.749
	v8.619c0,0.426,0.326,0.75,0.75,0.75c0.421,0,0.729-0.347,0.729-0.75V18.46c0-2.86,1.574-4.3,3.494-4.53
	c0.384-0.057,0.653-0.346,0.653-0.749C57.501,12.759,57.213,12.433,56.771,12.433z"/>
<path d="M63.376,12.355c-2.746,0-4.762,2.304-4.762,5.167v0.037c0,3.072,2.228,5.164,4.953,5.164c1.689,0,2.803-0.596,3.744-1.498
	c0.153-0.133,0.23-0.309,0.23-0.479c0-0.347-0.289-0.634-0.653-0.634c-0.173,0-0.307,0.076-0.422,0.173
	c-0.73,0.672-1.632,1.151-2.861,1.151c-1.767,0-3.283-1.209-3.493-3.359h7.181c0.363,0,0.69-0.287,0.69-0.691
	C67.983,14.755,66.313,12.355,63.376,12.355z M60.112,16.98c0.191-1.938,1.497-3.377,3.225-3.377c1.978,0,3.015,1.574,3.168,3.377
	H60.112z"/>
<path d="M79.291,8.381c-0.422,0-0.729,0.326-0.729,0.749v5.337c-0.768-1.114-1.959-2.112-3.802-2.112
	c-2.381,0-4.742,1.92-4.742,5.167v0.037c0,3.262,2.361,5.145,4.742,5.145c1.823,0,2.994-1.02,3.802-2.207v1.343
	c0,0.425,0.325,0.75,0.748,0.75c0.403,0,0.729-0.325,0.729-0.75V9.13C80.04,8.707,79.714,8.381,79.291,8.381z M78.619,17.539
	c0,2.285-1.747,3.838-3.59,3.838c-1.862,0-3.494-1.496-3.494-3.838v-0.04c0-2.398,1.574-3.82,3.494-3.82
	c1.843,0,3.59,1.537,3.59,3.82V17.539z"/>
<path d="M94.381,12.355c-1.824,0-2.995,1.018-3.801,2.208V9.13c0-0.423-0.327-0.749-0.749-0.749c-0.403,0-0.729,0.326-0.729,0.749
	v12.708c0,0.403,0.326,0.75,0.749,0.75c0.422,0,0.729-0.347,0.729-0.75v-1.246c0.768,1.113,1.958,2.11,3.801,2.11
	c2.4,0,4.742-1.918,4.742-5.163v-0.04C99.123,14.237,96.763,12.355,94.381,12.355z M97.606,17.559c0,2.399-1.574,3.818-3.494,3.818
	c-1.844,0-3.591-1.533-3.591-3.838v-0.04c0-2.265,1.747-3.82,3.591-3.82c1.882,0,3.494,1.498,3.494,3.842V17.559z"/>
<path d="M109.433,12.47c-0.384,0-0.595,0.25-0.71,0.557l-3.072,7.814l-3.455-7.796c-0.135-0.326-0.346-0.576-0.749-0.576
	c-0.423,0-0.748,0.326-0.748,0.729c0,0.135,0.038,0.27,0.095,0.403l4.147,8.792l-0.076,0.153c-0.539,1.211-1.076,1.769-1.997,1.769
	c-0.5,0-0.787-0.075-1.075-0.174c-0.116-0.037-0.23-0.076-0.365-0.076c-0.326,0-0.634,0.27-0.634,0.636
	c0,0.343,0.23,0.534,0.461,0.632c0.5,0.174,0.979,0.288,1.632,0.288c1.498,0,2.457-0.748,3.321-2.802l3.879-9.255
	c0.037-0.114,0.076-0.249,0.076-0.365C110.162,12.796,109.836,12.47,109.433,12.47z"/>
</svg>
