<?xml version="1.0" encoding="UTF-8" standalone="no"?>
<svg width="262px" height="126px" viewBox="0 0 262 126" version="1.1" xmlns="http://www.w3.org/2000/svg" xmlns:xlink="http://www.w3.org/1999/xlink" xmlns:sketch="http://www.bohemiancoding.com/sketch/ns">
    <!-- Generator: Sketch 3.2.2 (9983) - http://www.bohemiancoding.com/sketch -->
    <title>acbj-logo</title>
    <desc>Created with Sketch.</desc>
    <defs>
        <path id="path-1" d="M0,91.24 L254,91.24 L254,0.74 L0,0.74"></path>
    </defs>
    <g id="Page-1" stroke="none" stroke-width="1" fill="none" fill-rule="evenodd" sketch:type="MSPage">
        <g id="acbj-logo" sketch:type="MSArtboardGroup">
            <g id="Imported-Layers" sketch:type="MSLayerGroup" transform="translate(0.000000, -1.000000)">
                <path d="M0.094,0 L262,0 L262,128 L0.094,128 L0.094,0 Z" id="Fill-1" fill="#034279" sketch:type="MSShapeGroup"></path>
                <g id="Group-4" transform="translate(4.000000, 18.000000)">
                    <mask id="mask-2" sketch:name="Clip 3" fill="white">
                        <use xlink:href="#path-1"></use>
                    </mask>
                    <g id="Clip-3"></g>
                    <path d="M-1241.488,1211.102 L977.186,-1007.573 M-1218.833,1233.752 L999.84,-984.921 M-1196.176,1256.412 L1022.496,-962.262 M-1173.525,1279.062 L1045.149,-939.609 M-1150.869,1301.715 L1067.805,-916.958 M-1128.221,1324.361 L1090.455,-894.312 M-1105.566,1347.021 L1113.111,-871.651 M-1082.915,1369.672 L1135.762,-849 M-1060.258,1392.328 L1158.418,-826.344 M-1037.607,1414.98 L1181.068,-803.691 M-1014.952,1437.631 L1203.725,-781.04 M-992.297,1460.281 L1226.377,-758.389 M-969.638,1482.943 L1249.033,-735.728 M-946.987,1505.594 L1271.684,-713.077 M-924.331,1528.25 L1294.34,-690.421 M-901.685,1550.902 L1316.986,-667.773 M-879.029,1573.553 L1339.641,-645.122 M-856.377,1596.203 L1362.293,-622.471 M-833.721,1618.863 L1384.947,-599.81 M-811.065,1641.516 L1407.603,-577.159 M-788.415,1664.166 L1430.256,-554.506 M-765.764,1686.822 L1452.906,-531.85 M-743.112,1709.473 L1475.557,-509.199" id="Stroke-2" stroke="#BEC3D6" stroke-width="0.75" sketch:type="MSShapeGroup" mask="url(#mask-2)"></path>
                </g>
                <path d="M74.153,95.797 C75.45,99.36 76.637,100.657 82.145,101.413 L82.145,103.141 L52.769,103.141 L52.769,101.413 C60.328,100.549 62.381,99.577 60.545,94.717 L54.389,77.653 L27.172,77.653 L21.88,94.176 C20.044,100.008 22.313,100.332 33.328,101.413 L33.328,103.141 L10,103.141 L10,101.413 C15.94,100.332 17.561,99.684 18.964,95.366 L41.213,27 L48.557,27 L74.153,95.797 L74.153,95.797 Z M27.928,75.385 L53.633,75.385 L40.348,38.016 L40.133,38.016 L27.928,75.385 L27.928,75.385 Z" id="Fill-5" fill="#FFFFFF" sketch:type="MSShapeGroup"></path>
                <path d="M148,102.602 L148,100.873 C155.453,100.332 156.316,100.118 156.316,96.121 L156.316,33.48 C156.316,29.484 155.453,29.268 148,28.728 L148,27 L179.537,27 C195.737,27 204.376,34.56 204.376,45.36 C204.376,54 197.141,61.237 184.289,63.288 L184.289,63.504 C201.893,65.772 207.617,74.305 207.617,82.621 C207.617,94.5 198.977,102.602 182.777,102.602 L148,102.602 L148,102.602 Z M176.189,62.532 C186.88,62.532 191.632,55.944 191.632,46.44 C191.632,36.72 187.853,29.16 177.485,29.16 L168.737,29.16 L168.737,62.532 L176.189,62.532 L176.189,62.532 Z M179.429,100.442 C191.632,100.442 194.441,91.26 194.441,82.08 C194.441,72.037 189.257,64.8 176.838,64.8 L168.737,64.8 L168.737,100.442 L179.429,100.442 L179.429,100.442 Z" id="Fill-6" fill="#FFFFFF" sketch:type="MSShapeGroup"></path>
                <path d="M229.928,33.48 C229.928,29.484 229.064,29.268 221.612,28.728 L221.612,27 L250.664,27 L250.664,28.728 C243.213,29.268 242.349,29.484 242.349,33.48 L242.349,77.544 C242.349,92.773 232.52,103.682 219.775,103.682 C213.836,103.682 212,101.305 212,98.605 C212,96.013 213.836,94.5 216.752,94.5 C219.992,94.5 222.044,100.01 225.393,100.01 C230.252,100.01 229.928,93.529 229.928,79.596 L229.928,33.48" id="Fill-7" fill="#FFFFFF" sketch:type="MSShapeGroup"></path>
                <path d="M138.373,81.836 L140.101,81.836 L138.697,97.282 C134.377,99.981 126.493,103.762 115.693,103.762 C94.416,103.762 78,87.561 78,64.88 C78,42.2 94.416,26 115.693,26 C126.493,26 134.377,29.78 138.697,32.48 L139.777,47.924 L138.049,47.924 C135.888,38.636 128.652,28.268 115.693,28.268 C101.976,28.268 91.176,40.796 91.176,64.88 C91.176,89.29 101.976,101.493 115.693,101.493 C129.949,101.493 136.213,90.477 138.373,81.836" id="Fill-8" fill="#FFFFFF" sketch:type="MSShapeGroup"></path>
            </g>
        </g>
    </g>
</svg>