<?xml version="1.0" encoding="utf-8"?>
<!-- Generator: Adobe Illustrator 18.0.0, SVG Export Plug-In . SVG Version: 6.00 Build 0)  -->
<!DOCTYPE svg PUBLIC "-//W3C//DTD SVG 1.1//EN" "http://www.w3.org/Graphics/SVG/1.1/DTD/svg11.dtd">
<svg version="1.1" id="Layer_1" xmlns="http://www.w3.org/2000/svg" xmlns:xlink="http://www.w3.org/1999/xlink" x="0px" y="0px"
	 viewBox="0 0 612 792" enable-background="new 0 0 612 792" xml:space="preserve">
<g>
	<path fill="#FFFFFF" d="M8.5,72v31.2v20c0,28.3,22.9,51.2,51.2,51.2H111v-34.7H59.7c-9.1,0-16.5-7.4-16.5-16.5v-20h57.4V72H43.2
		V43.2H111V8.4H8.5V72z"/>
	<path fill="#FFFFFF" d="M385.9,72v31.2v20c0,28.3,22.9,51.2,51.2,51.2h51.2v-34.7h-51.2c-9.1,0-16.5-7.4-16.5-16.5v-20h57.4V72
		h-57.4V43.2h67.8V8.4H385.9V72L385.9,72z"/>
	<polygon fill="#FFFFFF" points="257.6,43.3 297.1,43.3 297.1,174.5 331.8,174.5 331.8,43.3 371.4,43.3 371.4,8.5 257.6,8.5 	"/>
	<path fill="#FFFFFF" d="M129.3,59.8v114.7H164v-50l44.5-11.2v61.2h34.6V8.5h-62.5C152.2,8.5,129.3,31.5,129.3,59.8 M208.3,82
		l-44.5,11.2V59.8c0-9.1,7.4-16.5,16.5-16.5h27.9V82L208.3,82z"/>
	<path fill="#FFFFFF" d="M620.5,64c0-7.3-1.4-14.5-4.2-21.2c-2.7-6.5-6.7-12.5-11.6-17.5c-4.9-5-10.8-9.1-17.2-11.9
		c-7-3-14.3-4.5-21.8-4.5h-58.8v165.4h34.6v-55.1h23.8c1.8,0,3.5-0.1,5.2-0.3l18.7,55.4h31.2l-22.3-66
		C611.6,98.2,620.5,82.2,620.5,64 M565.3,84.6h-23.8v-41h23.9l1.4,0.1c10.6,0.8,19,9.7,19,20.5C585.9,75.4,576.6,84.6,565.3,84.6"/>
</g>
</svg>
