<?xml version="1.0" encoding="utf-8"?>
<!-- Generator: Adobe Illustrator 16.0.4, SVG Export Plug-In . SVG Version: 6.00 Build 0)  -->
<!DOCTYPE svg PUBLIC "-//W3C//DTD SVG 1.1//EN" "http://www.w3.org/Graphics/SVG/1.1/DTD/svg11.dtd">
<svg version="1.1" id="STANDARD_x5F_LOCKUP" xmlns="http://www.w3.org/2000/svg" xmlns:xlink="http://www.w3.org/1999/xlink"
	 x="0px" y="0px" width="335px" height="122.2px" viewBox="0 7.1 335 122.2" enable-background="new 0 7.1 335 122.2"
	 xml:space="preserve">
<path fill="#FFFFFF" d="M87.5,59.7c9.5,0,13.1,1.5,15.9,3.8c4,3.3,6.1,8.4,6.1,13.7s-2.2,10.7-5.4,13.5c-3.6,3-7,4.5-15.1,4.5h-5.2
	v16.2H70.6V59.7H87.5z M83.8,83.5h4.8c1.3,0,3.3,0,5.1-0.8c1.7-0.8,3.1-2.4,3.1-5.4c0-3.1-1.5-4.5-3.3-5.3c-1.8-0.8-4-0.8-5.4-0.8
	h-4.3V83.5z"/>
<path fill="#FFFFFF" d="M109.9,91.8c0-9.4,6.8-20.5,20.8-20.5c14.1,0,20.9,11.1,20.9,20.6c0,9.5-6.8,20.6-20.9,20.6
	C116.6,112.5,109.9,101.4,109.9,91.8L109.9,91.8z M121.4,91.9c0,5.6,4.3,9.7,9.3,9.7c5,0,9.3-4.1,9.3-9.8c0-5.6-4.3-9.8-9.3-9.8
	C125.7,82.1,121.4,86.2,121.4,91.9L121.4,91.9z"/>
<rect x="155.3" y="59.7" fill="#FFFFFF" width="11.6" height="51.6"/>
<polygon fill="#FFFFFF" points="184.1,109.3 169.8,72.6 182.1,72.6 190,95 197.4,72.6 209.6,72.6 190.3,124.2 178,124.2 "/>
<path fill="#FFFFFF" d="M251.2,106.6c0,5.8-0.4,9.5-2.3,12.8c-3,4.9-10,9.1-19.6,9.1c-13.5,0-18.5-8.1-19.3-13.6h13.4
	c0.8,1.9,2.4,2.9,3.7,3.4c1.4,0.5,2.7,0.5,3.1,0.5c4.4,0,9.4-2.7,9.4-9.4V107c-1.3,2.2-4.7,5.5-10.7,5.5c-10.5,0-19.5-8-19.5-20.4
	c0-13.2,9.5-20.9,19.5-20.9c4.3,0,8.6,1.5,10.8,4.9v-3.6h11.6V106.6z M220.9,91.8c0,6.1,4.5,9.9,9.3,9.9c2.9,0,5.1-1,6.8-2.7
	c1.6-1.7,2.6-4,2.7-6.7c0-2.9-0.8-5.4-2.4-7.3c-1.5-1.9-3.9-3-7-3C225.3,82.1,220.9,86.1,220.9,91.8L220.9,91.8z"/>
<path fill="#FFFFFF" d="M254.8,91.8c0-9.4,6.8-20.5,20.8-20.5c14.1,0,20.8,11.1,20.8,20.6c0,9.5-6.8,20.6-20.8,20.6
	C261.6,112.5,254.8,101.4,254.8,91.8L254.8,91.8z M266.4,91.9c0,5.6,4.3,9.7,9.3,9.7c5,0,9.3-4.1,9.3-9.8c0-5.6-4.3-9.8-9.3-9.8
	C270.7,82.1,266.4,86.2,266.4,91.9L266.4,91.9z"/>
<path fill="#FFFFFF" d="M298.9,72.6h10.8v4.1c1.3-1.9,3.8-5.4,10.7-5.4c13,0,14.4,10.6,14.4,15.8v24.2h-11.6V90.1c0-4.2-0.9-8-6.1-8
	c-5.7,0-6.6,4.1-6.6,8.1v21.1h-11.6V72.6z"/>
<g>
	<path fill="#FFFFFF" d="M69.3,42.9c0.1-0.2,0.1-0.3,0.1-0.5c0,0,0-0.1,0-0.1c0-0.2-0.1-0.3-0.2-0.4c0,0,0,0,0,0L35.4,8.1
		c-0.2-0.2-0.5-0.3-0.8-0.3c0,0-0.1,0-0.1,0c-0.2,0-0.3,0.1-0.5,0.2c0,0,0,0,0,0L0.3,41.8c0,0,0,0.1-0.1,0.1c0,0,0,0.1-0.1,0.1
		c0,0-0.1,0.1-0.1,0.1C0,42.2,0,42.4,0,42.5c0,0,0,0,0,0v33.7c0,0,0,0.1,0,0.1c0,0,0,0.1,0,0.1c0,0.2,0.1,0.3,0.2,0.4v0L34,110.6
		c0.2,0.2,0.4,0.3,0.7,0.3c0.1,0,0.3,0,0.4-0.1c0.4-0.2,0.6-0.5,0.6-0.9V76.6L69,43.2C69.1,43.1,69.2,43,69.3,42.9 M33.7,43.5v30.3
		L3.4,43.5H33.7z M2,44.9l30.3,30.3H2V44.9z M35.7,43.5h30.3L35.7,73.8V43.5z M35.7,41.5V11.2l30.3,30.3H35.7z M33.7,41.5H3.4
		l30.3-30.3V41.5z M33.7,107.4L3.4,77.2h30.3V107.4z"/>
</g>
</svg>
