<?xml version="1.0" encoding="utf-8"?>
<!-- Generator: Adobe Illustrator 16.2.1, SVG Export Plug-In . SVG Version: 6.00 Build 0)  -->
<!DOCTYPE svg PUBLIC "-//W3C//DTD SVG 1.1//EN" "http://www.w3.org/Graphics/SVG/1.1/DTD/svg11.dtd">
<svg version="1.1" id="Layer_1" xmlns="http://www.w3.org/2000/svg" xmlns:xlink="http://www.w3.org/1999/xlink" x="0px" y="0px"
	 width="420px" height="81.973px" viewBox="0 0 420 81.973" enable-background="new 0 0 420 81.973" xml:space="preserve">
<g>
	<path fill="#FFFFFF" d="M23.125,78.737c-7.946,0-15.988-0.334-21.698-1.19v-11.04h10.896l0.523,1.381c2.379,0,4.711,0,7.09,0
		c2.807,0,3.331-0.19,3.331-0.81c0-0.618-0.523-0.666-4.806-1.047l-2.903-0.237C7.09,65.079,0,63.7,0,53.564
		c0-11.277,10.23-12.753,23.458-12.753c7.185,0,14.418,0.856,19.081,1.57v10.326H31.548l-0.571-1.475c-2.379,0-4.806,0-7.185,0
		c-2.617,0-3.189,0.143-3.189,0.761c0,0.667,0.81,0.81,4.902,1.237l3.14,0.333c11.42,1.189,15.703,3.95,15.703,11.849
		C44.348,76.738,34.403,78.737,23.125,78.737z"/>
	<path fill="#FFFFFF" d="M69.516,78.737c-3.712,0-13.086-0.381-22.365-1.286V65.983l2.046-0.238V53.801l-2.046-0.237V42.096
		c9.897-0.999,19.128-1.285,22.317-1.285c18.32,0,27.932,2.236,27.932,11.04v0.38c0,2.809-0.762,5.426-3.854,7.139
		c3.331,1.475,4.235,4.282,4.235,6.661v0.238C97.781,77.499,85.837,78.737,69.516,78.737z M77.177,53.469
		c0-1.476-1.618-1.57-5.188-1.57c-0.618,0-1.57,0.047-2.236,0.143v3.379h2.236c4.568,0,5.188-0.286,5.188-1.762V53.469z
		 M77.177,65.888c0-1.332-1.143-1.522-4.854-1.522h-2.569v3.283c0.571,0.096,1.475,0.143,2.569,0.143
		c3.902,0,4.854-0.238,4.854-1.809V65.888z"/>
	<path fill="#FFFFFF" d="M178.467,53.801v23.649H159.91l-10.516-9.897c-0.762-0.713-1.903-1.713-2.57-2.379h-0.143
		c0.096,1.237,0.096,2.665,0.096,3.949v8.327h-21.841V65.983l2.141-0.238V53.801l-2.141-0.237V42.096h19.651l11.562,10.373
		c0.667,0.619,1.904,1.666,2.57,2.332h0.096c-0.096-1.332-0.096-2.617-0.096-3.807v-8.898h21.793v11.468L178.467,53.801z"/>
	<path fill="#FFFFFF" d="M216.324,77.451l-0.904-4.473h-9.611l-0.951,4.473H182.54V65.983l2.712-0.238l3.711-11.943l-2.617-0.237
		V42.096h42.588l7.043,23.648l2.807,0.238v11.468H216.324z M211.517,53.469c-0.285-1.333-0.617-3.283-0.809-4.616h-0.096
		c-0.189,1.38-0.617,3.283-0.903,4.616l-1.855,8.803h5.662L211.517,53.469z"/>
	<path fill="#FFFFFF" d="M271.51,55.277l-0.761-1.95h-1.049v12.418l2.047,0.238v11.468h-26.361V65.983l2.047-0.238V53.327h-1.095
		l-0.715,1.95h-9.944V42.096h45.728v13.181H271.51z"/>
	<path fill="#FFFFFF" d="M283.543,77.451V65.983l2.047-0.238V53.801l-2.047-0.237V42.096h26.314v11.468l-2.093,0.237v11.943
		l2.093,0.238v11.468H283.543z"/>
	<path fill="#FFFFFF" d="M337.105,78.737c-13.275,0-24.935-3.57-24.935-18.844v-0.286c0-15.036,11.66-18.796,24.935-18.796
		s24.934,3.76,24.934,18.796v0.286C362.039,75.167,350.381,78.737,337.105,78.737z M341.006,59.607c0-4.711-0.521-6.614-3.9-6.614
		c-3.377,0-3.902,1.903-3.902,6.614v0.286c0,5.234,0.951,6.613,3.902,6.613c2.949,0,3.9-1.379,3.9-6.613V59.607z"/>
	<path fill="#FFFFFF" d="M417.953,53.801v23.649h-18.557l-10.516-9.897c-0.762-0.713-1.902-1.713-2.568-2.379h-0.145
		c0.096,1.237,0.096,2.665,0.096,3.949v8.327h-21.842V65.983l2.143-0.238V53.801l-2.143-0.237V42.096h19.652l11.562,10.373
		c0.666,0.619,1.902,1.666,2.57,2.332h0.096c-0.096-1.332-0.096-2.617-0.096-3.807v-8.898H420v11.468L417.953,53.801z"/>
</g>
<g>
	<g>
		<polygon fill="#911A1D" points="135.46,52.843 116.494,52.887 110.679,34.84 104.861,52.887 85.896,52.843 101.264,63.952 
			95.367,81.973 110.679,70.797 125.994,81.973 120.091,63.952 		"/>
	</g>
	<path fill="#C32227" d="M131.888,53.917l-21.217,6.888l5.008-6.888l0.012,0.044L131.888,53.917z M105.662,53.917l-0.018,0.044
		l-16.176-0.044l21.203,6.888V38.397L105.662,53.917z M118.847,63.463l-8.176-2.658l13.185,18.14l-5.06-15.446L118.847,63.463z
		 M102.553,63.499l-5.059,15.446l13.177-18.14l-8.168,2.658L102.553,63.499z"/>
</g>
</svg>
