<?xml version="1.0" encoding="utf-8"?>
<svg version="1.1" id="Layer_1" xmlns="http://www.w3.org/2000/svg" xmlns:xlink="http://www.w3.org/1999/xlink" x="0px" y="0px"
	 viewBox="0 0 587.2 175.4" enable-background="new 0 0 587.2 175.4" xml:space="preserve">
<g>
	<path fill="#ffffff" d="M0,164.1c-0.4-6.2,11.7-51.1,14-60.1c2.3-9,8-32.7,8.9-36.6c0.9-3.9,3.7-4.5,3.8-8.6
		c0-1.5,4.1-6.8,15.7-2.4c6.4,2.4,6.5,2.1,7,7.7c0,0,14.3-7.6,20.6-9.1c6.3-1.5,13.7-1.3,18.5,2.2c4.9,3.6,15.8,7.1,11.9,14.6
		c-2.8,5.6-8.7,14.5-15.3,7.9C71.7,66,63.6,77.7,51.6,90.6c-3.1,3.3-6.9,5.4-20,42.9C28,144,25,154.5,24.7,156.4
		c-0.7,4.2-0.4,11.6-7.8,13.9C14.5,171,0.4,169.9,0,164.1"/>
	<path fill="#ffffff" d="M475.1,148.8c-7,0-9.5-7.8-9.5-14.3c0-19,20-47.4,27.4-47.4c10.1,0,12,5.9,12,20.9
		C505,122.9,482.2,148.8,475.1,148.8 M389.9,105.6c4.2-8,15.2-18.3,20.7-20c6.3-1.9,14.8,2.7,7.4,12.6c-8.2,11-26.1,29.1-31.4,31.4
		C384.8,120.4,387.4,110.7,389.9,105.6z M136.9,133.5c-2.1,4-13.9,19.6-20.7,19.6c-7.4,0-10.1-11.8-5.7-25.1
		c7-21.3,20.9-40.9,30.8-40.9C151.1,87.1,138.8,128.6,136.9,133.5z M584.5,120.2c-3.4-2.9-10.3-2.3-10.3,6.3
		c0,13.3-8.2,19.4-16.9,24.7c-7.2,4.4-19.2,3.2-25.3-4.4c-8.2-10.3,4-45.5,5.1-47.4c3.2-5.9,30.6-48.1,33.1-52.9
		c12-23.8,13.1-35.8,10.1-41.3c-2.3-4.6-8.6-5.1-16.2-1.5c-7.8,3.6-31,34.4-35.8,46c-2.7,6.1-10.3,22.1-14.8,37.3
		c-15.6-22.8-36.5-12.2-40.3-8.2c-8.4,2.5-20.7,27.2-25.7,41.1c-5.3,13.7-24.2,31-37.7,31c-11.6,0-15-5.7-16.7-8
		c3.6-3.8,27.6-24,36.5-34.6c8.9-10.5,8-21.5,7-24.7c-1.5-4.8-5.9-10.1-20-10.1c-19.2,0-27.4,6.5-41.7,23.6
		c-13.1,15.4-8,42.8-8,46.6c0,4-9.7,5.7-13.1,5.7c-19.4,0-27.4-17.9-30.4-26.3c-2.3-7.2,1.1-13.9,3.8-16.2
		c5.5-5.1,22.1-21.1,25.3-24c6.1-5.7,10.5-13.3,15.2-17.7c7.8-7.4-5.5-17.7-11.2-12c-6.1,6.3-37.1,37.3-43.2,43.4
		c0.8-11.6,16.9-40.7,18.3-44.9c4.4-12.9,17.3-24.9,15.8-38.6C345.8-0.6,328.6-2.3,326,2.3c-18.3,33.3-31.4,64.3-33.5,70
		c-2.3,5.5-13.5,34.4-13.7,38.4c-0.8,12.9-17.3,21.7-33.3,32c-2.1,1.3-13.1,6.3-20.2,6.3c-11.6,0-15-7-15-27
		c0-15.8,15.2-31.8,22.8-31.8c3.8,0,5.9,2.3,7.2,5.9c0.8,2.5,3.2,5.7,5.9,5.7c3,0,9.1-7.2,9.1-9.7c0-7.6-14.5-17.9-22.6-17.9
		c-17.7,0-27.4,14.5-33.9,25.7c-5.1,9.3-6.3,15.8-10.3,20.9c-3.8,5.3-17.1,31-24,31c-5.5,0-6.3-9.5-6.3-13.1c4-20,10.5-32,16.9-51
		c2.5-7.4,3.6-13.5-6.7-16.9c-8.9-3-11.4,5.9-13.5,12.4c-3.4-7.4-8.2-11-15.8-11c-8,0-19.6,5.3-22.1,7.6
		c-2.7,1.3-10.8,7.4-16.9,17.3c-2.7,4.4-16.4,24-16.4,44.1c0,15.2,13.9,26.6,30.1,26.6c8.6,0,19.2-7,23.8-13.7
		c3.4,7.6,9.1,13.5,20.2,13.5c11.8,0,14.8-5.1,18.6-8.2c5.3-4.2,11.2-13.7,15.2-21.7c1.5,6.5,4,28.5,29.3,28.5
		c7.8,0,15.6-3.4,22.6-6.3c12.4-5.5,22.3-14.3,25.3-14.3c0,0-5.1,15.2-3,21.7c1.1,3.8,3,7.6,6.3,8c3.6,0.4,19.8,1.1,19.8-5.7
		c0-6.7,4.6-17.7,7.8-24.7c3.2-7,5.7-16,7.2-20.2c3.4,10.5,16.2,31,29.9,39.2c2.1,1.3,6.7,3,18.1,3c8.4,0,17.7-7.6,20.9-10.8
		c0,0,3.6,3.2,7,5.3c4.6,3.2,16.7,6.1,24.2,6.1c16.7,0,36.5-19.2,39.4-23.4c0.8,3.4,3.6,12.4,11,18.6c7.8,6.5,20.4,6.7,27.4,2.7
		c8.9-5.1,20-20.2,22.3-24.7c4,11,20.2,25.7,44.3,25.7c23.8,0,36-27.6,36-33.7C587.2,125,585.5,121.2,584.5,120.2z"/>
</g>
</svg>
